<?xml version="1.0" encoding="UTF-8" standalone="no"?>
<!DOCTYPE svg PUBLIC "-//W3C//DTD SVG 1.1//EN"
 "http://www.w3.org/Graphics/SVG/1.1/DTD/svg11.dtd">
<!-- Generated by graphviz version 2.40.1 (20161225.0304)
 -->
<!-- Title: public.passwords Pages: 1 -->
<svg width="695pt" height="562pt"
 viewBox="0.00 0.00 694.50 562.00" xmlns="http://www.w3.org/2000/svg" xmlns:xlink="http://www.w3.org/1999/xlink">
<g id="graph0" class="graph" transform="scale(1 1) rotate(0) translate(4 558)">
<title>public.passwords</title>
<polygon fill="#ffffff" stroke="transparent" points="-4,4 -4,-558 690.5,-558 690.5,4 -4,4"/>
<!-- public.passwords -->
<g id="node1" class="node">
<title>public.passwords</title>
<polygon fill="#efefef" stroke="transparent" points="54.5,-472.5 54.5,-507.5 333.5,-507.5 333.5,-472.5 54.5,-472.5"/>
<polygon fill="none" stroke="#000000" points="54.5,-472.5 54.5,-507.5 333.5,-507.5 333.5,-472.5 54.5,-472.5"/>
<text text-anchor="start" x="61.2058" y="-485.3" font-family="Arial Bold" font-size="18.00" fill="#000000">public.passwords</text>
<text text-anchor="start" x="199.2262" y="-485.3" font-family="Arial" font-size="14.00" fill="#000000">    </text>
<text text-anchor="start" x="233.431" y="-485.3" font-family="Arial" font-size="14.00" fill="#666666">[BASE TABLE]</text>
<polygon fill="none" stroke="#000000" points="54.5,-442.5 54.5,-472.5 333.5,-472.5 333.5,-442.5 54.5,-442.5"/>
<text text-anchor="start" x="61.5" y="-453.9" font-family="Arial" font-size="14.00" fill="#000000">id </text>
<text text-anchor="start" x="76.2798" y="-453.9" font-family="Arial" font-size="14.00" fill="#666666">[uuid]</text>
<polygon fill="none" stroke="#000000" points="54.5,-412.5 54.5,-442.5 333.5,-442.5 333.5,-412.5 54.5,-412.5"/>
<text text-anchor="start" x="61.5" y="-423.9" font-family="Arial" font-size="14.00" fill="#000000">value </text>
<text text-anchor="start" x="98.845" y="-423.9" font-family="Arial" font-size="14.00" fill="#666666">[bytea]</text>
<polygon fill="none" stroke="#000000" points="54.5,-382.5 54.5,-412.5 333.5,-412.5 333.5,-382.5 54.5,-382.5"/>
<text text-anchor="start" x="61.5" y="-393.9" font-family="Arial" font-size="14.00" fill="#000000">created_at </text>
<text text-anchor="start" x="131.528" y="-393.9" font-family="Arial" font-size="14.00" fill="#666666">[timestamp(3) with time zone]</text>
<polygon fill="none" stroke="#000000" points="54.5,-352.5 54.5,-382.5 333.5,-382.5 333.5,-352.5 54.5,-352.5"/>
<text text-anchor="start" x="61.5" y="-363.9" font-family="Arial" font-size="14.00" fill="#000000">updated_at </text>
<text text-anchor="start" x="135.4326" y="-363.9" font-family="Arial" font-size="14.00" fill="#666666">[timestamp(3) with time zone]</text>
<polygon fill="none" stroke="#000000" points="54.5,-322.5 54.5,-352.5 333.5,-352.5 333.5,-322.5 54.5,-322.5"/>
<text text-anchor="start" x="61.5" y="-333.9" font-family="Arial" font-size="14.00" fill="#000000">account_id </text>
<text text-anchor="start" x="133.0834" y="-333.9" font-family="Arial" font-size="14.00" fill="#666666">[uuid]</text>
<polygon fill="none" stroke="#000000" stroke-width="3" points="52.5,-321.5 52.5,-509.5 334.5,-509.5 334.5,-321.5 52.5,-321.5"/>
</g>
<!-- public.accounts -->
<g id="node2" class="node">
<title>public.accounts</title>
<polygon fill="#efefef" stroke="transparent" points="43.5,-162.5 43.5,-197.5 344.5,-197.5 344.5,-162.5 43.5,-162.5"/>
<polygon fill="none" stroke="#000000" points="43.5,-162.5 43.5,-197.5 344.5,-197.5 344.5,-162.5 43.5,-162.5"/>
<text text-anchor="start" x="68.1979" y="-175.3" font-family="Arial Bold" font-size="18.00" fill="#000000">public.accounts</text>
<text text-anchor="start" x="192.2341" y="-175.3" font-family="Arial" font-size="14.00" fill="#000000">    </text>
<text text-anchor="start" x="226.4389" y="-175.3" font-family="Arial" font-size="14.00" fill="#666666">[BASE TABLE]</text>
<polygon fill="none" stroke="#000000" points="43.5,-132.5 43.5,-162.5 344.5,-162.5 344.5,-132.5 43.5,-132.5"/>
<text text-anchor="start" x="50.5" y="-143.9" font-family="Arial" font-size="14.00" fill="#000000">id    </text>
<text text-anchor="start" x="95.594" y="-143.9" font-family="Arial" font-size="14.00" fill="#666666">[uuid]</text>
<polygon fill="none" stroke="#000000" points="43.5,-102.5 43.5,-132.5 344.5,-132.5 344.5,-102.5 43.5,-102.5"/>
<text text-anchor="start" x="50.5" y="-113.9" font-family="Arial" font-size="14.00" fill="#000000">created_at    </text>
<text text-anchor="start" x="150.8422" y="-113.9" font-family="Arial" font-size="14.00" fill="#666666">[timestamp(3) with time zone]</text>
<polygon fill="none" stroke="#000000" points="43.5,-72.5 43.5,-102.5 344.5,-102.5 344.5,-72.5 43.5,-72.5"/>
<text text-anchor="start" x="50.4825" y="-83.9" font-family="Arial" font-size="14.00" fill="#000000">updated_at    </text>
<text text-anchor="start" x="154.7293" y="-83.9" font-family="Arial" font-size="14.00" fill="#666666">[timestamp(3) with time zone]</text>
<polygon fill="none" stroke="#000000" points="43.5,-42.5 43.5,-72.5 344.5,-72.5 344.5,-42.5 43.5,-42.5"/>
<text text-anchor="start" x="50.5" y="-53.9" font-family="Arial" font-size="14.00" fill="#000000">deleted    </text>
<text text-anchor="start" x="130.615" y="-53.9" font-family="Arial" font-size="14.00" fill="#666666">[boolean]</text>
</g>
<!-- public.passwords&#45;&gt;public.accounts -->
<g id="edge1" class="edge">
<title>public.passwords:account_id&#45;&gt;public.accounts:id</title>
<path fill="none" stroke="#000000" d="M193.721,-312.2747C183.7434,-251.822 80.6661,-303.2939 43.5,-241 22.2085,-205.3134 1.9444,-147.5 43.5,-147.5"/>
<polygon fill="#000000" stroke="#000000" points="193.7402,-312.5289 190.013,-322.8419 194.1201,-317.5144 194.5,-322.5 194.5,-322.5 194.5,-322.5 194.1201,-317.5144 198.987,-322.1581 193.7402,-312.5289 193.7402,-312.5289"/>
<text text-anchor="start" x="201.045" y="-332.5" font-family="Arial" font-size="10.00" fill="#000000">FOREIGN KEY (account_id) REFERENCES accounts(id) ON UPDATE CASCADE ON DELETE RESTRICT</text>
</g>
</g>
</svg>
