<?xml version="1.0" encoding="UTF-8" standalone="no"?>
<!DOCTYPE svg PUBLIC "-//W3C//DTD SVG 1.1//EN"
 "http://www.w3.org/Graphics/SVG/1.1/DTD/svg11.dtd">
<!-- Generated by graphviz version 2.40.1 (20161225.0304)
 -->
<!-- Title: public.emails Pages: 1 -->
<svg width="828pt" height="592pt"
 viewBox="0.00 0.00 827.50 592.00" xmlns="http://www.w3.org/2000/svg" xmlns:xlink="http://www.w3.org/1999/xlink">
<g id="graph0" class="graph" transform="scale(1 1) rotate(0) translate(4 588)">
<title>public.emails</title>
<polygon fill="#ffffff" stroke="transparent" points="-4,4 -4,-588 823.5,-588 823.5,4 -4,4"/>
<!-- public.emails -->
<g id="node1" class="node">
<title>public.emails</title>
<polygon fill="#efefef" stroke="transparent" points="492,-502.5 492,-537.5 762,-537.5 762,-502.5 492,-502.5"/>
<polygon fill="none" stroke="#000000" points="492,-502.5 492,-537.5 762,-537.5 762,-502.5 492,-502.5"/>
<text text-anchor="start" x="511.2149" y="-515.3" font-family="Arial Bold" font-size="18.00" fill="#000000">public.emails</text>
<text text-anchor="start" x="615.2171" y="-515.3" font-family="Arial" font-size="14.00" fill="#000000">    </text>
<text text-anchor="start" x="649.4219" y="-515.3" font-family="Arial" font-size="14.00" fill="#666666">[BASE TABLE]</text>
<polygon fill="none" stroke="#000000" points="492,-472.5 492,-502.5 762,-502.5 762,-472.5 492,-472.5"/>
<text text-anchor="start" x="499" y="-483.9" font-family="Arial" font-size="14.00" fill="#000000">id </text>
<text text-anchor="start" x="513.7798" y="-483.9" font-family="Arial" font-size="14.00" fill="#666666">[uuid]</text>
<polygon fill="none" stroke="#000000" points="492,-442.5 492,-472.5 762,-472.5 762,-442.5 492,-442.5"/>
<text text-anchor="start" x="499" y="-453.9" font-family="Arial" font-size="14.00" fill="#000000">value </text>
<text text-anchor="start" x="536.345" y="-453.9" font-family="Arial" font-size="14.00" fill="#666666">[text]</text>
<polygon fill="none" stroke="#000000" points="492,-412.5 492,-442.5 762,-442.5 762,-412.5 492,-412.5"/>
<text text-anchor="start" x="499" y="-423.9" font-family="Arial" font-size="14.00" fill="#000000">created_at </text>
<text text-anchor="start" x="569.028" y="-423.9" font-family="Arial" font-size="14.00" fill="#666666">[timestamp(3) with time zone]</text>
<polygon fill="none" stroke="#000000" points="492,-382.5 492,-412.5 762,-412.5 762,-382.5 492,-382.5"/>
<text text-anchor="start" x="498.6396" y="-393.9" font-family="Arial" font-size="14.00" fill="#000000">updated_at </text>
<text text-anchor="start" x="572.5722" y="-393.9" font-family="Arial" font-size="14.00" fill="#666666">[timestamp(3) with time zone]</text>
<polygon fill="none" stroke="#000000" points="492,-352.5 492,-382.5 762,-382.5 762,-352.5 492,-352.5"/>
<text text-anchor="start" x="499" y="-363.9" font-family="Arial" font-size="14.00" fill="#000000">account_id </text>
<text text-anchor="start" x="570.5834" y="-363.9" font-family="Arial" font-size="14.00" fill="#666666">[uuid]</text>
<polygon fill="none" stroke="#000000" points="492,-322.5 492,-352.5 762,-352.5 762,-322.5 492,-322.5"/>
<text text-anchor="start" x="499" y="-333.9" font-family="Arial" font-size="14.00" fill="#000000">deleted </text>
<text text-anchor="start" x="548.8008" y="-333.9" font-family="Arial" font-size="14.00" fill="#666666">[boolean]</text>
<polygon fill="none" stroke="#000000" stroke-width="3" points="490.5,-321.5 490.5,-539.5 763.5,-539.5 763.5,-321.5 490.5,-321.5"/>
</g>
<!-- public.accounts -->
<g id="node2" class="node">
<title>public.accounts</title>
<polygon fill="#efefef" stroke="transparent" points="476,-162.5 476,-197.5 777,-197.5 777,-162.5 476,-162.5"/>
<polygon fill="none" stroke="#000000" points="476,-162.5 476,-197.5 777,-197.5 777,-162.5 476,-162.5"/>
<text text-anchor="start" x="500.6979" y="-175.3" font-family="Arial Bold" font-size="18.00" fill="#000000">public.accounts</text>
<text text-anchor="start" x="624.7341" y="-175.3" font-family="Arial" font-size="14.00" fill="#000000">    </text>
<text text-anchor="start" x="658.9389" y="-175.3" font-family="Arial" font-size="14.00" fill="#666666">[BASE TABLE]</text>
<polygon fill="none" stroke="#000000" points="476,-132.5 476,-162.5 777,-162.5 777,-132.5 476,-132.5"/>
<text text-anchor="start" x="483" y="-143.9" font-family="Arial" font-size="14.00" fill="#000000">id    </text>
<text text-anchor="start" x="528.094" y="-143.9" font-family="Arial" font-size="14.00" fill="#666666">[uuid]</text>
<polygon fill="none" stroke="#000000" points="476,-102.5 476,-132.5 777,-132.5 777,-102.5 476,-102.5"/>
<text text-anchor="start" x="483" y="-113.9" font-family="Arial" font-size="14.00" fill="#000000">created_at    </text>
<text text-anchor="start" x="583.3422" y="-113.9" font-family="Arial" font-size="14.00" fill="#666666">[timestamp(3) with time zone]</text>
<polygon fill="none" stroke="#000000" points="476,-72.5 476,-102.5 777,-102.5 777,-72.5 476,-72.5"/>
<text text-anchor="start" x="482.9825" y="-83.9" font-family="Arial" font-size="14.00" fill="#000000">updated_at    </text>
<text text-anchor="start" x="587.2293" y="-83.9" font-family="Arial" font-size="14.00" fill="#666666">[timestamp(3) with time zone]</text>
<polygon fill="none" stroke="#000000" points="476,-42.5 476,-72.5 777,-72.5 777,-42.5 476,-42.5"/>
<text text-anchor="start" x="483" y="-53.9" font-family="Arial" font-size="14.00" fill="#000000">deleted    </text>
<text text-anchor="start" x="563.115" y="-53.9" font-family="Arial" font-size="14.00" fill="#666666">[boolean]</text>
</g>
<!-- public.emails&#45;&gt;public.accounts -->
<g id="edge1" class="edge">
<title>public.emails:account_id&#45;&gt;public.accounts:id</title>
<path fill="none" stroke="#000000" d="M482.0736,-365.9839C454.4461,-356.4534 467.8941,-304.3424 492,-277 576.4324,-181.2315 692.5676,-336.7685 777,-241 804.4814,-209.8289 818.5556,-147.5 777,-147.5"/>
<polygon fill="#000000" stroke="#000000" points="482.1146,-365.99 491.3205,-371.9484 487.0573,-366.745 492,-367.5 492,-367.5 492,-367.5 487.0573,-366.745 492.6795,-363.0516 482.1146,-365.99 482.1146,-365.99"/>
<text text-anchor="start" x="6.545" y="-377.5" font-family="Arial" font-size="10.00" fill="#000000">FOREIGN KEY (account_id) REFERENCES accounts(id) ON UPDATE CASCADE ON DELETE RESTRICT</text>
</g>
</g>
</svg>
