<?xml version="1.0" encoding="UTF-8" standalone="no"?>
<!DOCTYPE svg PUBLIC "-//W3C//DTD SVG 1.1//EN"
 "http://www.w3.org/Graphics/SVG/1.1/DTD/svg11.dtd">
<!-- Generated by graphviz version 2.40.1 (20161225.0304)
 -->
<!-- Title: public.emails Pages: 1 -->
<svg width="693pt" height="592pt"
 viewBox="0.00 0.00 692.50 592.00" xmlns="http://www.w3.org/2000/svg" xmlns:xlink="http://www.w3.org/1999/xlink">
<g id="graph0" class="graph" transform="scale(1 1) rotate(0) translate(4 588)">
<title>public.emails</title>
<polygon fill="#ffffff" stroke="transparent" points="-4,4 -4,-588 688.5,-588 688.5,4 -4,4"/>
<!-- public.emails -->
<g id="node1" class="node">
<title>public.emails</title>
<polygon fill="#efefef" stroke="transparent" points="357,-502.5 357,-537.5 627,-537.5 627,-502.5 357,-502.5"/>
<polygon fill="none" stroke="#000000" points="357,-502.5 357,-537.5 627,-537.5 627,-502.5 357,-502.5"/>
<text text-anchor="start" x="376.2149" y="-515.3" font-family="Arial Bold" font-size="18.00" fill="#000000">public.emails</text>
<text text-anchor="start" x="480.2171" y="-515.3" font-family="Arial" font-size="14.00" fill="#000000">    </text>
<text text-anchor="start" x="514.4219" y="-515.3" font-family="Arial" font-size="14.00" fill="#666666">[BASE TABLE]</text>
<polygon fill="none" stroke="#000000" points="357,-472.5 357,-502.5 627,-502.5 627,-472.5 357,-472.5"/>
<text text-anchor="start" x="364" y="-483.9" font-family="Arial" font-size="14.00" fill="#000000">id </text>
<text text-anchor="start" x="378.7798" y="-483.9" font-family="Arial" font-size="14.00" fill="#666666">[uuid]</text>
<polygon fill="none" stroke="#000000" points="357,-442.5 357,-472.5 627,-472.5 627,-442.5 357,-442.5"/>
<text text-anchor="start" x="364" y="-453.9" font-family="Arial" font-size="14.00" fill="#000000">value </text>
<text text-anchor="start" x="401.345" y="-453.9" font-family="Arial" font-size="14.00" fill="#666666">[text]</text>
<polygon fill="none" stroke="#000000" points="357,-412.5 357,-442.5 627,-442.5 627,-412.5 357,-412.5"/>
<text text-anchor="start" x="364" y="-423.9" font-family="Arial" font-size="14.00" fill="#000000">created_at </text>
<text text-anchor="start" x="434.028" y="-423.9" font-family="Arial" font-size="14.00" fill="#666666">[timestamp(3) with time zone]</text>
<polygon fill="none" stroke="#000000" points="357,-382.5 357,-412.5 627,-412.5 627,-382.5 357,-382.5"/>
<text text-anchor="start" x="363.6396" y="-393.9" font-family="Arial" font-size="14.00" fill="#000000">updated_at </text>
<text text-anchor="start" x="437.5722" y="-393.9" font-family="Arial" font-size="14.00" fill="#666666">[timestamp(3) with time zone]</text>
<polygon fill="none" stroke="#000000" points="357,-352.5 357,-382.5 627,-382.5 627,-352.5 357,-352.5"/>
<text text-anchor="start" x="364" y="-363.9" font-family="Arial" font-size="14.00" fill="#000000">is_deleted </text>
<text text-anchor="start" x="431.69" y="-363.9" font-family="Arial" font-size="14.00" fill="#666666">[boolean]</text>
<polygon fill="none" stroke="#000000" points="357,-322.5 357,-352.5 627,-352.5 627,-322.5 357,-322.5"/>
<text text-anchor="start" x="364" y="-333.9" font-family="Arial" font-size="14.00" fill="#000000">account_id </text>
<text text-anchor="start" x="435.5834" y="-333.9" font-family="Arial" font-size="14.00" fill="#666666">[uuid]</text>
<polygon fill="none" stroke="#000000" stroke-width="3" points="355.5,-321.5 355.5,-539.5 628.5,-539.5 628.5,-321.5 355.5,-321.5"/>
</g>
<!-- public.accounts -->
<g id="node2" class="node">
<title>public.accounts</title>
<polygon fill="#efefef" stroke="transparent" points="341,-162.5 341,-197.5 642,-197.5 642,-162.5 341,-162.5"/>
<polygon fill="none" stroke="#000000" points="341,-162.5 341,-197.5 642,-197.5 642,-162.5 341,-162.5"/>
<text text-anchor="start" x="365.6979" y="-175.3" font-family="Arial Bold" font-size="18.00" fill="#000000">public.accounts</text>
<text text-anchor="start" x="489.7341" y="-175.3" font-family="Arial" font-size="14.00" fill="#000000">    </text>
<text text-anchor="start" x="523.9389" y="-175.3" font-family="Arial" font-size="14.00" fill="#666666">[BASE TABLE]</text>
<polygon fill="none" stroke="#000000" points="341,-132.5 341,-162.5 642,-162.5 642,-132.5 341,-132.5"/>
<text text-anchor="start" x="348" y="-143.9" font-family="Arial" font-size="14.00" fill="#000000">id    </text>
<text text-anchor="start" x="393.094" y="-143.9" font-family="Arial" font-size="14.00" fill="#666666">[uuid]</text>
<polygon fill="none" stroke="#000000" points="341,-102.5 341,-132.5 642,-132.5 642,-102.5 341,-102.5"/>
<text text-anchor="start" x="348" y="-113.9" font-family="Arial" font-size="14.00" fill="#000000">created_at    </text>
<text text-anchor="start" x="448.3422" y="-113.9" font-family="Arial" font-size="14.00" fill="#666666">[timestamp(3) with time zone]</text>
<polygon fill="none" stroke="#000000" points="341,-72.5 341,-102.5 642,-102.5 642,-72.5 341,-72.5"/>
<text text-anchor="start" x="347.9825" y="-83.9" font-family="Arial" font-size="14.00" fill="#000000">updated_at    </text>
<text text-anchor="start" x="452.2293" y="-83.9" font-family="Arial" font-size="14.00" fill="#666666">[timestamp(3) with time zone]</text>
<polygon fill="none" stroke="#000000" points="341,-42.5 341,-72.5 642,-72.5 642,-42.5 341,-42.5"/>
<text text-anchor="start" x="348" y="-53.9" font-family="Arial" font-size="14.00" fill="#000000">is_deleted    </text>
<text text-anchor="start" x="446.0042" y="-53.9" font-family="Arial" font-size="14.00" fill="#666666">[boolean]</text>
</g>
<!-- public.emails&#45;&gt;public.accounts -->
<g id="edge1" class="edge">
<title>public.emails:account_id&#45;&gt;public.accounts:id</title>
<path fill="none" stroke="#000000" d="M492.7741,-312.3245C502.6883,-252.1494 605.1106,-303.0261 642,-241 663.2419,-205.2838 683.5556,-147.5 642,-147.5"/>
<polygon fill="#000000" stroke="#000000" points="492.7587,-312.5288 487.513,-322.1586 492.3793,-317.5144 492,-322.5 492,-322.5 492,-322.5 492.3793,-317.5144 496.487,-322.8414 492.7587,-312.5288 492.7587,-312.5288"/>
<text text-anchor="start" x="6.545" y="-332.5" font-family="Arial" font-size="10.00" fill="#000000">FOREIGN KEY (account_id) REFERENCES accounts(id) ON UPDATE CASCADE ON DELETE RESTRICT</text>
</g>
</g>
</svg>
