<?xml version="1.0" encoding="UTF-8" standalone="no"?>
<!DOCTYPE svg PUBLIC "-//W3C//DTD SVG 1.1//EN"
 "http://www.w3.org/Graphics/SVG/1.1/DTD/svg11.dtd">
<!-- Generated by graphviz version 2.40.1 (20161225.0304)
 -->
<!-- Title: public.accounts Pages: 1 -->
<svg width="1501pt" height="592pt"
 viewBox="0.00 0.00 1501.00 592.00" xmlns="http://www.w3.org/2000/svg" xmlns:xlink="http://www.w3.org/1999/xlink">
<g id="graph0" class="graph" transform="scale(1 1) rotate(0) translate(4 588)">
<title>public.accounts</title>
<polygon fill="#ffffff" stroke="transparent" points="-4,4 -4,-588 1497,-588 1497,4 -4,4"/>
<!-- public.accounts -->
<g id="node1" class="node">
<title>public.accounts</title>
<polygon fill="#efefef" stroke="transparent" points="612,-165.5 612,-200.5 882,-200.5 882,-165.5 612,-165.5"/>
<polygon fill="none" stroke="#000000" points="612,-165.5 612,-200.5 882,-200.5 882,-165.5 612,-165.5"/>
<text text-anchor="start" x="621.1979" y="-178.3" font-family="Arial Bold" font-size="18.00" fill="#000000">public.accounts</text>
<text text-anchor="start" x="745.2341" y="-178.3" font-family="Arial" font-size="14.00" fill="#000000">    </text>
<text text-anchor="start" x="779.4389" y="-178.3" font-family="Arial" font-size="14.00" fill="#666666">[BASE TABLE]</text>
<polygon fill="none" stroke="#000000" points="612,-135.5 612,-165.5 882,-165.5 882,-135.5 612,-135.5"/>
<text text-anchor="start" x="619" y="-146.9" font-family="Arial" font-size="14.00" fill="#000000">id </text>
<text text-anchor="start" x="633.7798" y="-146.9" font-family="Arial" font-size="14.00" fill="#666666">[uuid]</text>
<polygon fill="none" stroke="#000000" points="612,-105.5 612,-135.5 882,-135.5 882,-105.5 612,-105.5"/>
<text text-anchor="start" x="619" y="-116.9" font-family="Arial" font-size="14.00" fill="#000000">created_at </text>
<text text-anchor="start" x="689.028" y="-116.9" font-family="Arial" font-size="14.00" fill="#666666">[timestamp(3) with time zone]</text>
<polygon fill="none" stroke="#000000" points="612,-75.5 612,-105.5 882,-105.5 882,-75.5 612,-75.5"/>
<text text-anchor="start" x="618.6396" y="-86.9" font-family="Arial" font-size="14.00" fill="#000000">updated_at </text>
<text text-anchor="start" x="692.5722" y="-86.9" font-family="Arial" font-size="14.00" fill="#666666">[timestamp(3) with time zone]</text>
<polygon fill="none" stroke="#000000" points="612,-45.5 612,-75.5 882,-75.5 882,-45.5 612,-45.5"/>
<text text-anchor="start" x="619" y="-56.9" font-family="Arial" font-size="14.00" fill="#000000">is_deleted </text>
<text text-anchor="start" x="686.69" y="-56.9" font-family="Arial" font-size="14.00" fill="#666666">[boolean]</text>
<polygon fill="none" stroke="#000000" stroke-width="3" points="610.5,-44.5 610.5,-202.5 883.5,-202.5 883.5,-44.5 610.5,-44.5"/>
</g>
<!-- public.emails -->
<g id="node2" class="node">
<title>public.emails</title>
<polygon fill="#efefef" stroke="transparent" points="191,-505.5 191,-540.5 492,-540.5 492,-505.5 191,-505.5"/>
<polygon fill="none" stroke="#000000" points="191,-505.5 191,-540.5 492,-540.5 492,-505.5 191,-505.5"/>
<text text-anchor="start" x="225.7149" y="-518.3" font-family="Arial Bold" font-size="18.00" fill="#000000">public.emails</text>
<text text-anchor="start" x="329.7171" y="-518.3" font-family="Arial" font-size="14.00" fill="#000000">    </text>
<text text-anchor="start" x="363.9219" y="-518.3" font-family="Arial" font-size="14.00" fill="#666666">[BASE TABLE]</text>
<polygon fill="none" stroke="#000000" points="191,-475.5 191,-505.5 492,-505.5 492,-475.5 191,-475.5"/>
<text text-anchor="start" x="198" y="-486.9" font-family="Arial" font-size="14.00" fill="#000000">id    </text>
<text text-anchor="start" x="243.094" y="-486.9" font-family="Arial" font-size="14.00" fill="#666666">[uuid]</text>
<polygon fill="none" stroke="#000000" points="191,-445.5 191,-475.5 492,-475.5 492,-445.5 191,-445.5"/>
<text text-anchor="start" x="198" y="-456.9" font-family="Arial" font-size="14.00" fill="#000000">value    </text>
<text text-anchor="start" x="265.6592" y="-456.9" font-family="Arial" font-size="14.00" fill="#666666">[text]</text>
<polygon fill="none" stroke="#000000" points="191,-415.5 191,-445.5 492,-445.5 492,-415.5 191,-415.5"/>
<text text-anchor="start" x="198" y="-426.9" font-family="Arial" font-size="14.00" fill="#000000">created_at    </text>
<text text-anchor="start" x="298.3422" y="-426.9" font-family="Arial" font-size="14.00" fill="#666666">[timestamp(3) with time zone]</text>
<polygon fill="none" stroke="#000000" points="191,-385.5 191,-415.5 492,-415.5 492,-385.5 191,-385.5"/>
<text text-anchor="start" x="197.9825" y="-396.9" font-family="Arial" font-size="14.00" fill="#000000">updated_at    </text>
<text text-anchor="start" x="302.2293" y="-396.9" font-family="Arial" font-size="14.00" fill="#666666">[timestamp(3) with time zone]</text>
<polygon fill="none" stroke="#000000" points="191,-355.5 191,-385.5 492,-385.5 492,-355.5 191,-355.5"/>
<text text-anchor="start" x="198" y="-366.9" font-family="Arial" font-size="14.00" fill="#000000">is_deleted    </text>
<text text-anchor="start" x="296.0042" y="-366.9" font-family="Arial" font-size="14.00" fill="#666666">[boolean]</text>
<polygon fill="none" stroke="#000000" points="191,-325.5 191,-355.5 492,-355.5 492,-325.5 191,-325.5"/>
<text text-anchor="start" x="198" y="-336.9" font-family="Arial" font-size="14.00" fill="#000000">account_id    </text>
<text text-anchor="start" x="299.8976" y="-336.9" font-family="Arial" font-size="14.00" fill="#666666">[uuid]</text>
</g>
<!-- public.emails&#45;&gt;public.accounts -->
<g id="edge1" class="edge">
<title>public.emails:account_id&#45;&gt;public.accounts:id</title>
<path fill="none" stroke="#000000" d="M501.8423,-337.9578C544.8288,-315.4113 565.4755,-150.5 612,-150.5"/>
<polygon fill="#000000" stroke="#000000" points="501.6822,-337.9991 490.8746,-336.143 496.8411,-339.2495 492,-340.5 492,-340.5 492,-340.5 496.8411,-339.2495 493.1254,-344.857 501.6822,-337.9991 501.6822,-337.9991"/>
<text text-anchor="start" x="6.545" y="-350.5" font-family="Arial" font-size="10.00" fill="#000000">FOREIGN KEY (account_id) REFERENCES accounts(id) ON UPDATE CASCADE ON DELETE RESTRICT</text>
</g>
<!-- public.passwords -->
<g id="node3" class="node">
<title>public.passwords</title>
<polygon fill="#efefef" stroke="transparent" points="596,-490.5 596,-525.5 897,-525.5 897,-490.5 596,-490.5"/>
<polygon fill="none" stroke="#000000" points="596,-490.5 596,-525.5 897,-525.5 897,-490.5 596,-490.5"/>
<text text-anchor="start" x="613.7058" y="-503.3" font-family="Arial Bold" font-size="18.00" fill="#000000">public.passwords</text>
<text text-anchor="start" x="751.7262" y="-503.3" font-family="Arial" font-size="14.00" fill="#000000">    </text>
<text text-anchor="start" x="785.931" y="-503.3" font-family="Arial" font-size="14.00" fill="#666666">[BASE TABLE]</text>
<polygon fill="none" stroke="#000000" points="596,-460.5 596,-490.5 897,-490.5 897,-460.5 596,-460.5"/>
<text text-anchor="start" x="603" y="-471.9" font-family="Arial" font-size="14.00" fill="#000000">id    </text>
<text text-anchor="start" x="648.094" y="-471.9" font-family="Arial" font-size="14.00" fill="#666666">[uuid]</text>
<polygon fill="none" stroke="#000000" points="596,-430.5 596,-460.5 897,-460.5 897,-430.5 596,-430.5"/>
<text text-anchor="start" x="603" y="-441.9" font-family="Arial" font-size="14.00" fill="#000000">value    </text>
<text text-anchor="start" x="670.6592" y="-441.9" font-family="Arial" font-size="14.00" fill="#666666">[bytea]</text>
<polygon fill="none" stroke="#000000" points="596,-400.5 596,-430.5 897,-430.5 897,-400.5 596,-400.5"/>
<text text-anchor="start" x="603" y="-411.9" font-family="Arial" font-size="14.00" fill="#000000">created_at    </text>
<text text-anchor="start" x="703.3422" y="-411.9" font-family="Arial" font-size="14.00" fill="#666666">[timestamp(3) with time zone]</text>
<polygon fill="none" stroke="#000000" points="596,-370.5 596,-400.5 897,-400.5 897,-370.5 596,-370.5"/>
<text text-anchor="start" x="602.9825" y="-381.9" font-family="Arial" font-size="14.00" fill="#000000">updated_at    </text>
<text text-anchor="start" x="707.2293" y="-381.9" font-family="Arial" font-size="14.00" fill="#666666">[timestamp(3) with time zone]</text>
<polygon fill="none" stroke="#000000" points="596,-340.5 596,-370.5 897,-370.5 897,-340.5 596,-340.5"/>
<text text-anchor="start" x="603" y="-351.9" font-family="Arial" font-size="14.00" fill="#000000">account_id    </text>
<text text-anchor="start" x="704.8976" y="-351.9" font-family="Arial" font-size="14.00" fill="#666666">[uuid]</text>
</g>
<!-- public.passwords&#45;&gt;public.accounts -->
<g id="edge2" class="edge">
<title>public.passwords:account_id&#45;&gt;public.accounts:id</title>
<path fill="none" stroke="#000000" d="M746.2397,-330.2576C736.9021,-271.7168 644.147,-308.3691 612,-247 592.0986,-209.008 569.1111,-150.5 612,-150.5"/>
<polygon fill="#000000" stroke="#000000" points="746.2596,-330.5274 742.5123,-340.8332 746.6298,-335.5137 747,-340.5 747,-340.5 747,-340.5 746.6298,-335.5137 751.4877,-340.1668 746.2596,-330.5274 746.2596,-330.5274"/>
<text text-anchor="start" x="753.545" y="-350.5" font-family="Arial" font-size="10.00" fill="#000000">FOREIGN KEY (account_id) REFERENCES accounts(id) ON UPDATE CASCADE ON DELETE RESTRICT</text>
</g>
<!-- public.profiles -->
<g id="node4" class="node">
<title>public.profiles</title>
<polygon fill="#efefef" stroke="transparent" points="1001,-505.5 1001,-540.5 1302,-540.5 1302,-505.5 1001,-505.5"/>
<polygon fill="none" stroke="#000000" points="1001,-505.5 1001,-540.5 1302,-540.5 1302,-505.5 1001,-505.5"/>
<text text-anchor="start" x="1032.7107" y="-518.3" font-family="Arial Bold" font-size="18.00" fill="#000000">public.profiles</text>
<text text-anchor="start" x="1142.7213" y="-518.3" font-family="Arial" font-size="14.00" fill="#000000">    </text>
<text text-anchor="start" x="1176.9261" y="-518.3" font-family="Arial" font-size="14.00" fill="#666666">[BASE TABLE]</text>
<polygon fill="none" stroke="#000000" points="1001,-475.5 1001,-505.5 1302,-505.5 1302,-475.5 1001,-475.5"/>
<text text-anchor="start" x="1008" y="-486.9" font-family="Arial" font-size="14.00" fill="#000000">id    </text>
<text text-anchor="start" x="1053.094" y="-486.9" font-family="Arial" font-size="14.00" fill="#666666">[uuid]</text>
<polygon fill="none" stroke="#000000" points="1001,-445.5 1001,-475.5 1302,-475.5 1302,-445.5 1001,-445.5"/>
<text text-anchor="start" x="1008" y="-456.9" font-family="Arial" font-size="14.00" fill="#000000">first_name    </text>
<text text-anchor="start" x="1107.5442" y="-456.9" font-family="Arial" font-size="14.00" fill="#666666">[text]</text>
<polygon fill="none" stroke="#000000" points="1001,-415.5 1001,-445.5 1302,-445.5 1302,-415.5 1001,-415.5"/>
<text text-anchor="start" x="1008" y="-426.9" font-family="Arial" font-size="14.00" fill="#000000">family_name    </text>
<text text-anchor="start" x="1121.5428" y="-426.9" font-family="Arial" font-size="14.00" fill="#666666">[text]</text>
<polygon fill="none" stroke="#000000" points="1001,-385.5 1001,-415.5 1302,-415.5 1302,-385.5 1001,-385.5"/>
<text text-anchor="start" x="1008" y="-396.9" font-family="Arial" font-size="14.00" fill="#000000">created_at    </text>
<text text-anchor="start" x="1108.3422" y="-396.9" font-family="Arial" font-size="14.00" fill="#666666">[timestamp(3) with time zone]</text>
<polygon fill="none" stroke="#000000" points="1001,-355.5 1001,-385.5 1302,-385.5 1302,-355.5 1001,-355.5"/>
<text text-anchor="start" x="1007.9825" y="-366.9" font-family="Arial" font-size="14.00" fill="#000000">updated_at    </text>
<text text-anchor="start" x="1112.2293" y="-366.9" font-family="Arial" font-size="14.00" fill="#666666">[timestamp(3) with time zone]</text>
<polygon fill="none" stroke="#000000" points="1001,-325.5 1001,-355.5 1302,-355.5 1302,-325.5 1001,-325.5"/>
<text text-anchor="start" x="1008" y="-336.9" font-family="Arial" font-size="14.00" fill="#000000">account_id    </text>
<text text-anchor="start" x="1109.8976" y="-336.9" font-family="Arial" font-size="14.00" fill="#666666">[uuid]</text>
</g>
<!-- public.profiles&#45;&gt;public.accounts -->
<g id="edge3" class="edge">
<title>public.profiles:account_id&#45;&gt;public.accounts:id</title>
<path fill="none" stroke="#000000" d="M991.1906,-337.9578C948.3908,-315.4113 928.4143,-150.5 882,-150.5"/>
<polygon fill="#000000" stroke="#000000" points="991.3198,-337.9912 999.871,-344.8561 996.1599,-339.2456 1001,-340.5 1001,-340.5 1001,-340.5 996.1599,-339.2456 1002.129,-336.1439 991.3198,-337.9912 991.3198,-337.9912"/>
<text text-anchor="start" x="1007.545" y="-324.5" font-family="Arial" font-size="10.00" fill="#000000">FOREIGN KEY (account_id) REFERENCES accounts(id) ON UPDATE CASCADE ON DELETE RESTRICT</text>
</g>
</g>
</svg>
