<?xml version="1.0" encoding="UTF-8" standalone="no"?>
<!DOCTYPE svg PUBLIC "-//W3C//DTD SVG 1.1//EN"
 "http://www.w3.org/Graphics/SVG/1.1/DTD/svg11.dtd">
<!-- Generated by graphviz version 2.40.1 (20161225.0304)
 -->
<!-- Title: postgres Pages: 1 -->
<svg width="1501pt" height="586pt"
 viewBox="0.00 0.00 1501.00 586.00" xmlns="http://www.w3.org/2000/svg" xmlns:xlink="http://www.w3.org/1999/xlink">
<g id="graph0" class="graph" transform="scale(1 1) rotate(0) translate(4 582)">
<title>postgres</title>
<polygon fill="#ffffff" stroke="transparent" points="-4,4 -4,-582 1497,-582 1497,4 -4,4"/>
<!-- public.accounts -->
<g id="node1" class="node">
<title>public.accounts</title>
<polygon fill="#efefef" stroke="transparent" points="596,-162.5 596,-197.5 897,-197.5 897,-162.5 596,-162.5"/>
<polygon fill="none" stroke="#000000" points="596,-162.5 596,-197.5 897,-197.5 897,-162.5 596,-162.5"/>
<text text-anchor="start" x="620.6979" y="-175.3" font-family="Arial Bold" font-size="18.00" fill="#000000">public.accounts</text>
<text text-anchor="start" x="744.7341" y="-175.3" font-family="Arial" font-size="14.00" fill="#000000">    </text>
<text text-anchor="start" x="778.9389" y="-175.3" font-family="Arial" font-size="14.00" fill="#666666">[BASE TABLE]</text>
<polygon fill="none" stroke="#000000" points="596,-132.5 596,-162.5 897,-162.5 897,-132.5 596,-132.5"/>
<text text-anchor="start" x="603" y="-143.9" font-family="Arial" font-size="14.00" fill="#000000">id    </text>
<text text-anchor="start" x="648.094" y="-143.9" font-family="Arial" font-size="14.00" fill="#666666">[uuid]</text>
<polygon fill="none" stroke="#000000" points="596,-102.5 596,-132.5 897,-132.5 897,-102.5 596,-102.5"/>
<text text-anchor="start" x="603" y="-113.9" font-family="Arial" font-size="14.00" fill="#000000">created_at    </text>
<text text-anchor="start" x="703.3422" y="-113.9" font-family="Arial" font-size="14.00" fill="#666666">[timestamp(3) with time zone]</text>
<polygon fill="none" stroke="#000000" points="596,-72.5 596,-102.5 897,-102.5 897,-72.5 596,-72.5"/>
<text text-anchor="start" x="602.9825" y="-83.9" font-family="Arial" font-size="14.00" fill="#000000">updated_at    </text>
<text text-anchor="start" x="707.2293" y="-83.9" font-family="Arial" font-size="14.00" fill="#666666">[timestamp(3) with time zone]</text>
<polygon fill="none" stroke="#000000" points="596,-42.5 596,-72.5 897,-72.5 897,-42.5 596,-42.5"/>
<text text-anchor="start" x="603" y="-53.9" font-family="Arial" font-size="14.00" fill="#000000">deleted    </text>
<text text-anchor="start" x="683.115" y="-53.9" font-family="Arial" font-size="14.00" fill="#666666">[boolean]</text>
</g>
<!-- public.emails -->
<g id="node2" class="node">
<title>public.emails</title>
<polygon fill="#efefef" stroke="transparent" points="191,-499.5 191,-534.5 492,-534.5 492,-499.5 191,-499.5"/>
<polygon fill="none" stroke="#000000" points="191,-499.5 191,-534.5 492,-534.5 492,-499.5 191,-499.5"/>
<text text-anchor="start" x="225.7149" y="-512.3" font-family="Arial Bold" font-size="18.00" fill="#000000">public.emails</text>
<text text-anchor="start" x="329.7171" y="-512.3" font-family="Arial" font-size="14.00" fill="#000000">    </text>
<text text-anchor="start" x="363.9219" y="-512.3" font-family="Arial" font-size="14.00" fill="#666666">[BASE TABLE]</text>
<polygon fill="none" stroke="#000000" points="191,-469.5 191,-499.5 492,-499.5 492,-469.5 191,-469.5"/>
<text text-anchor="start" x="198" y="-480.9" font-family="Arial" font-size="14.00" fill="#000000">id    </text>
<text text-anchor="start" x="243.094" y="-480.9" font-family="Arial" font-size="14.00" fill="#666666">[uuid]</text>
<polygon fill="none" stroke="#000000" points="191,-439.5 191,-469.5 492,-469.5 492,-439.5 191,-439.5"/>
<text text-anchor="start" x="198" y="-450.9" font-family="Arial" font-size="14.00" fill="#000000">value    </text>
<text text-anchor="start" x="265.6592" y="-450.9" font-family="Arial" font-size="14.00" fill="#666666">[text]</text>
<polygon fill="none" stroke="#000000" points="191,-409.5 191,-439.5 492,-439.5 492,-409.5 191,-409.5"/>
<text text-anchor="start" x="198" y="-420.9" font-family="Arial" font-size="14.00" fill="#000000">created_at    </text>
<text text-anchor="start" x="298.3422" y="-420.9" font-family="Arial" font-size="14.00" fill="#666666">[timestamp(3) with time zone]</text>
<polygon fill="none" stroke="#000000" points="191,-379.5 191,-409.5 492,-409.5 492,-379.5 191,-379.5"/>
<text text-anchor="start" x="197.9825" y="-390.9" font-family="Arial" font-size="14.00" fill="#000000">updated_at    </text>
<text text-anchor="start" x="302.2293" y="-390.9" font-family="Arial" font-size="14.00" fill="#666666">[timestamp(3) with time zone]</text>
<polygon fill="none" stroke="#000000" points="191,-349.5 191,-379.5 492,-379.5 492,-349.5 191,-349.5"/>
<text text-anchor="start" x="198" y="-360.9" font-family="Arial" font-size="14.00" fill="#000000">account_id    </text>
<text text-anchor="start" x="299.8976" y="-360.9" font-family="Arial" font-size="14.00" fill="#666666">[uuid]</text>
<polygon fill="none" stroke="#000000" points="191,-319.5 191,-349.5 492,-349.5 492,-319.5 191,-319.5"/>
<text text-anchor="start" x="198" y="-330.9" font-family="Arial" font-size="14.00" fill="#000000">deleted    </text>
<text text-anchor="start" x="278.115" y="-330.9" font-family="Arial" font-size="14.00" fill="#666666">[boolean]</text>
</g>
<!-- public.emails&#45;&gt;public.accounts -->
<g id="edge1" class="edge">
<title>public.emails:account_id&#45;&gt;public.accounts:id</title>
<path fill="none" stroke="#000000" d="M501.6668,-361.9118C545.3286,-337.4288 545.9722,-147.5 596,-147.5"/>
<polygon fill="#000000" stroke="#000000" points="501.6598,-361.9136 490.8361,-360.1531 496.8299,-363.2068 492,-364.5 492,-364.5 492,-364.5 496.8299,-363.2068 493.1639,-368.8469 501.6598,-361.9136 501.6598,-361.9136"/>
<text text-anchor="start" x="6.545" y="-374.5" font-family="Arial" font-size="10.00" fill="#000000">FOREIGN KEY (account_id) REFERENCES accounts(id) ON UPDATE CASCADE ON DELETE RESTRICT</text>
</g>
<!-- public.passwords -->
<g id="node3" class="node">
<title>public.passwords</title>
<polygon fill="#efefef" stroke="transparent" points="596,-484.5 596,-519.5 897,-519.5 897,-484.5 596,-484.5"/>
<polygon fill="none" stroke="#000000" points="596,-484.5 596,-519.5 897,-519.5 897,-484.5 596,-484.5"/>
<text text-anchor="start" x="613.7058" y="-497.3" font-family="Arial Bold" font-size="18.00" fill="#000000">public.passwords</text>
<text text-anchor="start" x="751.7262" y="-497.3" font-family="Arial" font-size="14.00" fill="#000000">    </text>
<text text-anchor="start" x="785.931" y="-497.3" font-family="Arial" font-size="14.00" fill="#666666">[BASE TABLE]</text>
<polygon fill="none" stroke="#000000" points="596,-454.5 596,-484.5 897,-484.5 897,-454.5 596,-454.5"/>
<text text-anchor="start" x="603" y="-465.9" font-family="Arial" font-size="14.00" fill="#000000">id    </text>
<text text-anchor="start" x="648.094" y="-465.9" font-family="Arial" font-size="14.00" fill="#666666">[uuid]</text>
<polygon fill="none" stroke="#000000" points="596,-424.5 596,-454.5 897,-454.5 897,-424.5 596,-424.5"/>
<text text-anchor="start" x="603" y="-435.9" font-family="Arial" font-size="14.00" fill="#000000">value    </text>
<text text-anchor="start" x="670.6592" y="-435.9" font-family="Arial" font-size="14.00" fill="#666666">[bytea]</text>
<polygon fill="none" stroke="#000000" points="596,-394.5 596,-424.5 897,-424.5 897,-394.5 596,-394.5"/>
<text text-anchor="start" x="603" y="-405.9" font-family="Arial" font-size="14.00" fill="#000000">created_at    </text>
<text text-anchor="start" x="703.3422" y="-405.9" font-family="Arial" font-size="14.00" fill="#666666">[timestamp(3) with time zone]</text>
<polygon fill="none" stroke="#000000" points="596,-364.5 596,-394.5 897,-394.5 897,-364.5 596,-364.5"/>
<text text-anchor="start" x="602.9825" y="-375.9" font-family="Arial" font-size="14.00" fill="#000000">updated_at    </text>
<text text-anchor="start" x="707.2293" y="-375.9" font-family="Arial" font-size="14.00" fill="#666666">[timestamp(3) with time zone]</text>
<polygon fill="none" stroke="#000000" points="596,-334.5 596,-364.5 897,-364.5 897,-334.5 596,-334.5"/>
<text text-anchor="start" x="603" y="-345.9" font-family="Arial" font-size="14.00" fill="#000000">account_id    </text>
<text text-anchor="start" x="704.8976" y="-345.9" font-family="Arial" font-size="14.00" fill="#666666">[uuid]</text>
</g>
<!-- public.passwords&#45;&gt;public.accounts -->
<g id="edge2" class="edge">
<title>public.passwords:account_id&#45;&gt;public.accounts:id</title>
<path fill="none" stroke="#000000" d="M746.2771,-324.2522C736.6076,-260.3933 632.609,-306.7275 596,-241 575.7793,-204.6959 554.4444,-147.5 596,-147.5"/>
<polygon fill="#000000" stroke="#000000" points="746.2962,-324.5248 742.5112,-334.8167 746.6481,-329.5124 747,-334.5 747,-334.5 747,-334.5 746.6481,-329.5124 751.4888,-334.1833 746.2962,-324.5248 746.2962,-324.5248"/>
<text text-anchor="start" x="753.545" y="-344.5" font-family="Arial" font-size="10.00" fill="#000000">FOREIGN KEY (account_id) REFERENCES accounts(id) ON UPDATE CASCADE ON DELETE RESTRICT</text>
</g>
<!-- public.profiles -->
<g id="node4" class="node">
<title>public.profiles</title>
<polygon fill="#efefef" stroke="transparent" points="1001,-499.5 1001,-534.5 1302,-534.5 1302,-499.5 1001,-499.5"/>
<polygon fill="none" stroke="#000000" points="1001,-499.5 1001,-534.5 1302,-534.5 1302,-499.5 1001,-499.5"/>
<text text-anchor="start" x="1032.7107" y="-512.3" font-family="Arial Bold" font-size="18.00" fill="#000000">public.profiles</text>
<text text-anchor="start" x="1142.7213" y="-512.3" font-family="Arial" font-size="14.00" fill="#000000">    </text>
<text text-anchor="start" x="1176.9261" y="-512.3" font-family="Arial" font-size="14.00" fill="#666666">[BASE TABLE]</text>
<polygon fill="none" stroke="#000000" points="1001,-469.5 1001,-499.5 1302,-499.5 1302,-469.5 1001,-469.5"/>
<text text-anchor="start" x="1008" y="-480.9" font-family="Arial" font-size="14.00" fill="#000000">id    </text>
<text text-anchor="start" x="1053.094" y="-480.9" font-family="Arial" font-size="14.00" fill="#666666">[uuid]</text>
<polygon fill="none" stroke="#000000" points="1001,-439.5 1001,-469.5 1302,-469.5 1302,-439.5 1001,-439.5"/>
<text text-anchor="start" x="1008" y="-450.9" font-family="Arial" font-size="14.00" fill="#000000">first_name    </text>
<text text-anchor="start" x="1107.5442" y="-450.9" font-family="Arial" font-size="14.00" fill="#666666">[text]</text>
<polygon fill="none" stroke="#000000" points="1001,-409.5 1001,-439.5 1302,-439.5 1302,-409.5 1001,-409.5"/>
<text text-anchor="start" x="1008" y="-420.9" font-family="Arial" font-size="14.00" fill="#000000">family_name    </text>
<text text-anchor="start" x="1121.5428" y="-420.9" font-family="Arial" font-size="14.00" fill="#666666">[text]</text>
<polygon fill="none" stroke="#000000" points="1001,-379.5 1001,-409.5 1302,-409.5 1302,-379.5 1001,-379.5"/>
<text text-anchor="start" x="1008" y="-390.9" font-family="Arial" font-size="14.00" fill="#000000">created_at    </text>
<text text-anchor="start" x="1108.3422" y="-390.9" font-family="Arial" font-size="14.00" fill="#666666">[timestamp(3) with time zone]</text>
<polygon fill="none" stroke="#000000" points="1001,-349.5 1001,-379.5 1302,-379.5 1302,-349.5 1001,-349.5"/>
<text text-anchor="start" x="1007.9825" y="-360.9" font-family="Arial" font-size="14.00" fill="#000000">updated_at    </text>
<text text-anchor="start" x="1112.2293" y="-360.9" font-family="Arial" font-size="14.00" fill="#666666">[timestamp(3) with time zone]</text>
<polygon fill="none" stroke="#000000" points="1001,-319.5 1001,-349.5 1302,-349.5 1302,-319.5 1001,-319.5"/>
<text text-anchor="start" x="1008" y="-330.9" font-family="Arial" font-size="14.00" fill="#000000">account_id    </text>
<text text-anchor="start" x="1109.8976" y="-330.9" font-family="Arial" font-size="14.00" fill="#666666">[uuid]</text>
</g>
<!-- public.profiles&#45;&gt;public.accounts -->
<g id="edge3" class="edge">
<title>public.profiles:account_id&#45;&gt;public.accounts:id</title>
<path fill="none" stroke="#000000" d="M990.6638,-333.6663C912.358,-320.176 988.3849,-147.5 897,-147.5"/>
<polygon fill="#000000" stroke="#000000" points="991.0324,-333.6959 1000.6382,-338.9854 996.0162,-334.098 1001,-334.5 1001,-334.5 1001,-334.5 996.0162,-334.098 1001.3618,-330.0146 991.0324,-333.6959 991.0324,-333.6959"/>
<text text-anchor="start" x="1007.545" y="-318.5" font-family="Arial" font-size="10.00" fill="#000000">FOREIGN KEY (account_id) REFERENCES accounts(id) ON UPDATE CASCADE ON DELETE RESTRICT</text>
</g>
</g>
</svg>
